<svg width="491" height="171" viewBox="0 0 491 171" fill="none" xmlns="http://www.w3.org/2000/svg">
<path d="M12.544 48.36C24.4907 44.52 36.5653 42.6 48.768 42.6C60.9707 42.6 70.3573 44.648 76.928 48.744C78.464 53.352 79.232 57.7467 79.232 61.928C79.232 71.7413 75.1787 79.976 67.072 86.632C58.9653 93.2027 48.512 97.9387 35.712 100.84L32.64 129.512L19.84 130.792L12.544 48.36ZM54.528 65.64C54.528 59.0693 51.84 54.1627 46.464 50.92C44.928 50.92 43.0507 51.2187 40.832 51.816L36.608 92.136C42.1547 89.064 46.5067 85.096 49.664 80.232C52.9067 75.368 54.528 70.504 54.528 65.64ZM129.524 86.888C123.721 86.888 119.327 88.936 116.34 93.032C113.353 97.0427 111.177 104.467 109.812 115.304L108.02 129.768L95.348 130.92L88.82 67.432L116.212 63.208L113.652 83.688H114.548C121.375 69.0107 130.079 61.2027 140.66 60.264L137.076 87.528C133.919 87.1013 131.401 86.888 129.524 86.888ZM203.089 105.448C203.089 114.749 201.041 121.533 196.945 125.8C192.934 129.981 185.468 132.072 174.545 132.072C163.622 132.072 155.089 129.597 148.945 124.648C147.665 118.504 147.025 112.36 147.025 106.216C147.025 100.072 147.878 94.312 149.585 88.936C151.377 83.4747 153.596 78.824 156.241 74.984C161.788 67.1333 166.737 62.1413 171.089 60.008C179.281 64.1893 186.492 69.864 192.721 77.032C199.633 84.8827 203.089 94.3547 203.089 105.448ZM188.241 101.992C188.241 93.8853 186.534 86.4613 183.121 79.72C176.038 83.4747 170.193 89.192 165.585 96.872C160.977 104.552 158.673 112.317 158.673 120.168C161.404 120.68 165.329 120.936 170.449 120.936C175.569 120.936 180.817 120.04 186.193 118.248C187.558 113.043 188.241 107.624 188.241 101.992ZM222.428 53.352C220.124 50.9627 218.972 48.1467 218.972 44.904C218.972 41.6613 220.124 38.888 222.428 36.584C224.817 34.1947 227.633 33 230.876 33C234.119 33 236.892 34.1947 239.196 36.584C241.585 38.888 242.78 41.6613 242.78 44.904C242.78 48.1467 241.585 50.9627 239.196 53.352C236.892 55.656 234.119 56.808 230.876 56.808C227.633 56.808 224.817 55.656 222.428 53.352ZM218.204 146.28C212.743 146.28 207.623 144.36 202.844 140.52L206.684 133.992C209.244 135.784 212.103 136.68 215.26 136.68C221.319 136.68 224.348 132.925 224.348 125.416C224.348 124.563 222.385 105.277 218.46 67.56L245.852 63.464L237.66 129.64C236.295 140.733 229.809 146.28 218.204 146.28ZM285.086 60.008C305.737 68.2853 316.062 78.568 316.062 90.856C316.062 97.256 314.227 101.907 310.558 104.808C306.974 107.624 300.275 109.032 290.462 109.032C284.233 109.032 279.113 108.563 275.102 107.624C273.481 111.635 272.67 115.816 272.67 120.168C276.51 120.68 280.862 120.936 285.726 120.936C294.601 120.936 302.963 119.528 310.814 116.712L314.654 129.128C308.425 131.091 301.427 132.072 293.662 132.072C279.838 132.072 269.683 129.555 263.198 124.52C261.833 118.461 261.15 112.744 261.15 107.368C261.15 96.616 263.497 86.9307 268.19 78.312C272.969 69.6933 278.601 63.592 285.086 60.008ZM277.662 101.608C278.771 101.693 281.545 101.736 285.982 101.736C290.505 101.736 295.667 101.139 301.47 99.944C301.726 98.3227 301.854 96.7013 301.854 95.08C301.854 89.96 300.446 85.0533 297.63 80.36C289.182 85.992 282.526 93.0747 277.662 101.608ZM352.181 120.936C360.373 120.936 368.096 119.528 375.349 116.712L379.189 129.128C373.216 131.091 366.944 132.072 360.373 132.072C353.802 132.072 348 131.347 342.965 129.896C337.93 128.531 334.09 126.739 331.445 124.52C330.165 118.376 329.525 112.659 329.525 107.368C329.525 96.7013 331.914 87.016 336.693 78.312C341.557 69.608 347.146 63.5067 353.461 60.008L375.605 74.472C364.853 80.2747 356.405 87.1867 350.261 95.208C344.117 103.144 341.045 111.464 341.045 120.168C344.629 120.68 348.341 120.936 352.181 120.936ZM401.328 130.92L395.824 79.208L384.048 80.872L383.28 67.688L394.544 67.176L392.624 49.256L424.496 45.032L421.936 65.768L434.608 65.128L434.224 73.704L420.656 75.624L414 129.768L401.328 130.92ZM444.805 86.888C444.805 75.9653 450.565 65.9813 462.085 56.936L483.077 71.016C473.605 77.0747 468.869 83.432 468.869 90.088C468.869 93.5867 470.789 98.152 474.629 103.784C478.554 109.416 480.517 113.811 480.517 116.968C480.517 128.147 472.837 136.765 457.477 142.824L451.845 135.272C458.586 131.603 461.957 127.549 461.957 123.112C461.957 118.931 459.098 113.64 453.381 107.24C451.248 104.851 449.285 101.821 447.493 98.152C445.701 94.4827 444.805 90.728 444.805 86.888Z" fill="url(#paint0_linear_46_55)"/>
<path d="M0 141.8H490.757V148.2H0V141.8Z" fill="url(#paint1_linear_46_55)"/>
<defs>
<linearGradient id="paint0_linear_46_55" x1="491" y1="2.05589e-05" x2="10.5" y2="152" gradientUnits="userSpaceOnUse">
<stop stop-color="#FD0003"/>
<stop offset="0.500346" stop-color="#979797"/>
<stop offset="1" stop-color="#2400FF"/>
</linearGradient>
<linearGradient id="paint1_linear_46_55" x1="491" y1="2.05589e-05" x2="10.5" y2="152" gradientUnits="userSpaceOnUse">
<stop stop-color="#FD0003"/>
<stop offset="0.500346" stop-color="#979797"/>
<stop offset="1" stop-color="#2400FF"/>
</linearGradient>
</defs>
</svg>
