<svg width="41" height="40" viewBox="0 0 41 40" fill="none" xmlns="http://www.w3.org/2000/svg">
<path d="M21.875 20.0005C21.875 16.778 24.4225 14.168 27.5625 14.168C30.705 14.168 33.25 16.7755 33.25 20.0005C33.25 23.223 30.705 25.833 27.5625 25.833C24.425 25.833 21.875 23.2255 21.875 20.0005Z" fill="#1ABCFE"/>
<path d="M10.5 31.667C10.5 28.4445 13.0475 25.832 16.1875 25.832H21.875V31.667C21.875 34.887 19.3275 37.4995 16.1875 37.4995C13.0475 37.4995 10.5 34.887 10.5 31.667Z" fill="#0ACF83"/>
<path d="M21.875 2.5V14.1675H27.5625C30.705 14.1675 33.25 11.555 33.25 8.3325C33.25 5.1125 30.705 2.5 27.5625 2.5H21.875Z" fill="#FF7262"/>
<path d="M10.5 8.3325C10.5 11.555 13.0475 14.1675 16.1875 14.1675H21.875V2.5H16.1875C13.0475 2.5 10.5 5.1125 10.5 8.3325Z" fill="#F24E1E"/>
<path d="M10.5 20.0005C10.5 23.223 13.0475 25.833 16.1875 25.833H21.875V14.168H16.1875C13.0475 14.168 10.5 16.7755 10.5 20.0005Z" fill="#A259FF"/>
</svg>
