<svg width="41" height="40" viewBox="0 0 41 40" fill="none" xmlns="http://www.w3.org/2000/svg">
<path d="M34.431 4.1377L31.8927 32.9344L20.483 36.1377L9.10463 32.9388L6.56897 4.1377H34.431Z" fill="#E44D26"/>
<path d="M20.6379 33.6556L29.7942 31.0826L31.9483 6.62109H20.6379V33.6556Z" fill="#F16529"/>
<path d="M15.5021 13.4868H20.6379V9.93066H11.5345L11.6213 10.8847L12.5137 20.6846H20.6379V17.1284H15.8339L15.5021 13.4868ZM16.3203 22.4627H12.6759L13.1845 28.0465L20.6212 30.0686L20.6379 30.0641V26.3642L20.622 26.3683L16.5788 25.2989L16.3203 22.4627Z" fill="#EBEBEB"/>
<path d="M20.3622 20.6855H24.7015L24.2924 25.298L20.3621 26.3686V30.0686L27.5864 28.048L27.6394 27.4471L28.4676 18.084L28.5535 17.129H20.3622V20.6855ZM20.3622 13.4784V13.4871H28.8742L28.9448 12.6878L29.1055 10.8848L29.1897 9.93066H20.3622V13.4784Z" fill="white"/>
</svg>
