<svg width="41" height="40" viewBox="0 0 41 40" fill="none" xmlns="http://www.w3.org/2000/svg">
<path d="M34.5 0H6.5C3.18629 0 0.5 2.68629 0.5 6V34C0.5 37.3137 3.18629 40 6.5 40H34.5C37.8137 40 40.5 37.3137 40.5 34V6C40.5 2.68629 37.8137 0 34.5 0Z" fill="#F7DF1E"/>
<path d="M29.8027 32C30.2478 32.7083 30.8709 33.2083 31.8947 33.2083C32.7849 33.2083 33.3635 32.7917 33.3635 32.2083C33.3635 31.5417 32.7849 31.2917 31.8056 30.875L31.2715 30.6667C29.7136 30.0417 28.6899 29.2917 28.6899 27.6667C28.6899 26.1667 29.8917 25 31.8056 25C33.1855 25 34.1647 25.4583 34.8323 26.625L33.1855 27.625C32.8294 27 32.4288 26.75 31.8056 26.75C31.1825 26.75 30.7819 27.125 30.7819 27.625C30.7819 28.2083 31.1825 28.4583 32.1172 28.8333L32.6513 29.0417C34.4763 29.7917 35.5 30.5 35.5 32.2083C35.5 34 33.9866 35 31.9392 35C29.9362 35 28.6454 34.125 28.0223 32.9583L29.8027 32ZM22.2359 32.1667C22.592 32.7083 22.8591 33.2083 23.6157 33.2083C24.3279 33.2083 24.773 32.9583 24.773 31.9583V25.0417H26.9095V31.875C26.9095 33.9583 25.6187 34.875 23.7047 34.875C21.9688 34.875 20.9896 34.0417 20.5 33.0417L22.2359 32.1667Z" fill="black"/>
</svg>
