<svg width="41" height="40" viewBox="0 0 41 40" fill="none" xmlns="http://www.w3.org/2000/svg">
<path fill-rule="evenodd" clip-rule="evenodd" d="M16.7705 2.5C14.0241 2.5 11.7978 4.65566 11.7978 7.31481V10.6482H20.4044V11.5741H7.97267C5.22634 11.5741 3 13.7298 3 16.3889V23.6111C3 26.2703 5.22634 28.4259 7.97267 28.4259H10.8415V24.3519C10.8415 21.6928 13.0679 19.537 15.8142 19.537H24.9945C27.3184 19.537 29.2021 17.713 29.2021 15.463V7.31481C29.2021 4.65566 26.9759 2.5 24.2295 2.5H16.7705ZM15.623 8.42592C16.5736 8.42592 17.3442 7.67973 17.3442 6.75926C17.3442 5.83879 16.5736 5.09259 15.623 5.09259C14.6722 5.09259 13.9016 5.83879 13.9016 6.75926C13.9016 7.67973 14.6722 8.42592 15.623 8.42592Z" fill="url(#paint0_linear_60_87)"/>
<path fill-rule="evenodd" clip-rule="evenodd" d="M24.2292 37.5001C26.9756 37.5001 29.202 35.3445 29.202 32.6854V29.352H20.5954V28.4261H33.0271C35.7735 28.4261 37.9997 26.2704 37.9997 23.6112V16.389C37.9997 13.7299 35.7735 11.5742 33.0271 11.5742H30.1582V15.6482C30.1582 18.3075 27.9319 20.4631 25.1856 20.4631H16.0052C13.6814 20.4631 11.7976 22.2871 11.7976 24.5371V32.6854C11.7976 35.3445 14.024 37.5001 16.7702 37.5001H24.2292ZM25.3769 31.5742C24.4261 31.5742 23.6555 32.3204 23.6555 33.2409C23.6555 34.1614 24.4261 34.9075 25.3769 34.9075C26.3275 34.9075 27.0981 34.1614 27.0981 33.2409C27.0981 32.3204 26.3275 31.5742 25.3769 31.5742Z" fill="url(#paint1_linear_60_87)"/>
<defs>
<linearGradient id="paint0_linear_60_87" x1="16.1011" y1="2.5" x2="16.1011" y2="28.4259" gradientUnits="userSpaceOnUse">
<stop stop-color="#327EBD"/>
<stop offset="1" stop-color="#1565A7"/>
</linearGradient>
<linearGradient id="paint1_linear_60_87" x1="24.8987" y1="11.5742" x2="24.8987" y2="37.5001" gradientUnits="userSpaceOnUse">
<stop stop-color="#FFDA4B"/>
<stop offset="1" stop-color="#F9C600"/>
</linearGradient>
</defs>
</svg>
