<svg width="41" height="40" viewBox="0 0 41 40" fill="none" xmlns="http://www.w3.org/2000/svg">
<path d="M33.388 12.9647C32.9731 12.8042 32.5431 12.6523 32.1004 12.5087C32.1732 12.1749 32.2399 11.8454 32.2993 11.5216C33.274 6.20368 32.6367 1.91955 30.4605 0.509027C28.3738 -0.843474 24.9611 0.566725 21.5145 3.93802C21.1831 4.2622 20.8507 4.60542 20.5185 4.96514C20.2972 4.72714 20.0762 4.49715 19.8557 4.27716C16.2436 0.672358 12.6229 -0.846756 10.4488 0.567845C8.36412 1.92427 7.74675 5.95176 8.62414 10.9916C8.70887 11.4784 8.80791 11.9755 8.91991 12.4809C8.40748 12.6444 7.91279 12.8187 7.43946 13.0041C3.20458 14.6636 0.5 17.2644 0.5 19.9621C0.5 22.7484 3.40337 25.543 7.81432 27.2375C8.16242 27.3712 8.52361 27.4977 8.89584 27.6177C8.77502 28.1644 8.66992 28.7001 8.58171 29.2225C7.74511 34.1749 8.39844 38.1072 10.4776 39.4551C12.6252 40.847 16.2295 39.4163 19.7391 35.9682C20.0165 35.6956 20.2949 35.4065 20.5738 35.1036C20.9352 35.4948 21.2962 35.8651 21.6551 36.2124C25.0546 39.5004 28.4122 40.8281 30.4894 39.4764C32.6349 38.0805 33.3321 33.8562 32.4269 28.7167C32.3578 28.3242 32.2773 27.9232 32.187 27.515C32.4401 27.4309 32.6886 27.3441 32.9309 27.2538C37.5165 25.5462 40.5 22.7856 40.5 19.9621C40.5 17.2546 37.7082 14.6363 33.388 12.9647ZM32.3934 25.4308C32.1747 25.5122 31.9503 25.5908 31.7216 25.6671C31.2154 23.8658 30.5321 21.9504 29.6961 19.9715C30.4939 18.0397 31.1507 16.1488 31.6428 14.3592C32.052 14.4923 32.4491 14.6326 32.8318 14.7808C36.5333 16.213 38.7912 18.3305 38.7912 19.9621C38.7912 21.7001 36.3528 23.9563 32.3934 25.4308ZM30.7506 29.0897C31.1509 31.3623 31.208 33.417 30.9429 35.0233C30.7047 36.4666 30.2256 37.4289 29.6332 37.8143C28.3726 38.6344 25.6768 37.5684 22.7696 34.7565C22.4363 34.4342 22.1006 34.09 21.7638 33.7257C22.8909 32.3402 24.0173 30.7296 25.1167 28.9408C27.0504 28.7479 28.8773 28.4326 30.5341 28.0022C30.6157 28.3721 30.6881 28.7349 30.7506 29.0897ZM14.1369 37.6726C12.9053 38.1615 11.9244 38.1755 11.3314 37.7912C10.0697 36.9733 9.54518 33.816 10.2607 29.5807C10.3426 29.0957 10.4402 28.5975 10.5526 28.0882C12.1912 28.4954 14.0047 28.7885 15.943 28.9651C17.0498 30.7155 18.2088 32.3244 19.3768 33.7331C19.1216 34.01 18.8674 34.2736 18.6146 34.522C17.0627 36.0467 15.5075 37.1285 14.1369 37.6726ZM8.36697 25.4202C6.41653 24.6709 4.80579 23.6971 3.7017 22.6344C2.7096 21.6795 2.20872 20.7314 2.20872 19.9621C2.20872 18.3251 4.38023 16.237 8.00193 14.8177C8.44137 14.6455 8.90139 14.4832 9.37879 14.3308C9.87932 16.1608 10.5359 18.0741 11.3283 20.0089C10.5257 21.9724 9.85974 23.9162 9.35429 25.7676C9.01396 25.6577 8.68424 25.5419 8.36697 25.4202ZM10.3011 10.6227C9.54938 6.30475 10.0486 3.04742 11.3049 2.23004C12.6431 1.35929 15.6023 2.6008 18.7211 5.71337C18.9204 5.91231 19.1206 6.12054 19.3213 6.33596C18.1591 7.73856 17.0107 9.33538 15.9138 11.0754C14.0325 11.2714 12.2317 11.5862 10.5761 12.0078C10.472 11.5372 10.3798 11.0748 10.3011 10.6227ZM27.5553 15.4114C27.1595 14.643 26.7532 13.8927 26.3389 13.163C27.6152 13.3443 28.838 13.585 29.9863 13.8796C29.6415 15.1214 29.2118 16.4198 28.706 17.7509C28.3432 16.9766 27.9594 16.196 27.5553 15.4114ZM20.5191 7.70855C21.3073 8.66829 22.0966 9.73982 22.8729 10.9024C22.0906 10.8609 21.2986 10.8393 20.5 10.8393C19.709 10.8393 18.9228 10.8604 18.1453 10.9012C18.9224 9.74943 19.7186 8.67933 20.5191 7.70855ZM13.4378 15.4246C13.0424 16.1952 12.6658 16.9716 12.3086 17.7494C11.811 16.423 11.3853 15.1187 11.0376 13.8593C12.1788 13.5722 13.3959 13.3375 14.664 13.1596C14.2439 13.8961 13.8342 14.652 13.4378 15.4246ZM14.7005 26.9017C13.3903 26.7374 12.155 26.5147 11.014 26.2356C11.3673 24.9537 11.8024 23.6215 12.3106 22.2665C12.6686 23.0438 13.0468 23.8205 13.4446 24.5928C13.8498 25.3795 14.2696 26.1501 14.7005 26.9017ZM20.5664 32.3511C19.7565 31.369 18.9486 30.2825 18.1597 29.1139C18.9256 29.1477 19.7064 29.165 20.5 29.165C21.3153 29.165 22.1213 29.1444 22.9146 29.1047C22.1357 30.2943 21.3492 31.3824 20.5664 32.3511ZM28.7223 22.1975C29.257 23.5671 29.7077 24.8923 30.0655 26.1524C28.9057 26.4498 27.6536 26.6893 26.3342 26.8672C26.7495 26.1276 27.1594 25.3645 27.5621 24.5796C27.9696 23.7854 28.3565 22.99 28.7223 22.1975ZM26.082 23.6201C25.4567 24.8386 24.8148 26.0019 24.1631 27.0999C22.9761 27.1953 21.7498 27.2444 20.5 27.2444C19.2552 27.2444 18.0444 27.2009 16.8784 27.1159C16.2005 26.0035 15.5446 24.8368 14.9233 23.6306C14.3037 22.4276 13.7335 21.2145 13.2167 20.0082C13.7333 18.7991 14.3022 17.5847 14.9182 16.3839C15.536 15.1799 16.186 14.0192 16.8577 12.9137C18.0473 12.8126 19.2671 12.7599 20.4999 12.7599C21.7383 12.7599 22.9598 12.813 24.149 12.915C24.8105 14.0124 25.4562 15.1696 26.0763 16.3737C26.7035 17.5914 27.2797 18.7978 27.8007 19.9809C27.2813 21.1844 26.7064 22.403 26.082 23.6201ZM29.607 2.17291C30.9465 3.0411 31.4674 6.54251 30.6258 11.1339C30.5721 11.4269 30.5116 11.7253 30.446 12.0277C28.7865 11.5974 26.9844 11.2771 25.0977 11.0782C23.9986 9.31897 22.8596 7.71967 21.7164 6.33508C22.0237 6.00274 22.3307 5.68584 22.6363 5.38679C25.5894 2.49829 28.3495 1.35785 29.607 2.17291ZM20.5 15.9475C22.4727 15.9475 24.0719 17.7449 24.0719 19.9621C24.0719 22.1793 22.4727 23.9767 20.5 23.9767C18.5273 23.9767 16.9281 22.1793 16.9281 19.9621C16.9281 17.7449 18.5273 15.9475 20.5 15.9475Z" fill="#00D8FF"/>
</svg>
